<?xml version="1.0" encoding="UTF-8"?>
<svg xmlns="http://www.w3.org/2000/svg" xmlns:xlink="http://www.w3.org/1999/xlink" width="201.267mm" height="205.000mm" viewBox="292.000427 -445.000000 201.267151 205.000000">
    <path transform="matrix(-1,-0,-0,1,482.682007,-788.757446)" style="stroke:#0000ff;stroke-width:0.05mm;fill:none" d="M124.952019,434.112L124.952019,440.007996L128.152039,440.007996L128.152039,443.216003L124.952019,443.216003L124.952019,452.312012L121.752007,452.312042L121.752007,455.512024L118.552017,455.512024L118.552017,452.312042L109.751999,452.312012L109.751999,455.511993L106.552002,455.511993L106.552002,452.312012L97.752029,452.311981L97.752029,455.511963L94.552032,455.511963L94.552032,452.311981L91.352036,452.311981L91.352036,443.207977L88.152039,443.207977L88.152039,440.007965L91.352036,440.007965L91.352036,434.111969L106.295998,434.112L106.295998,441.615997C106.287216,442.612335,107.076111,443.432892,108.071999,443.463989C109.0485,443.509399,109.88929,442.780975,109.984001,441.808014L110,441.615997L110,434.112L124.952019,434.112z"/>
    <circle transform="matrix(1,0,-0,1,374.531006,-347.139404)" style="stroke:#f36926;stroke-width:0.05mm;fill:none" r="6" cx="0" cy="0"/>
    <circle transform="matrix(-1,-0.000001,-0.000001,1,386.529999,-347.149414)" style="stroke:#0000ff;stroke-width:0.05mm;fill:none" r="1.5" cx="0" cy="0"/>
    <circle transform="matrix(-1,-0.000001,-0.000001,1,362.529999,-347.145416)" style="stroke:#0000ff;stroke-width:0.05mm;fill:none" r="1.5" cx="0" cy="0"/>
    <circle transform="matrix(1,0,-0,1,374.531006,-347.139404)" style="stroke:#f36926;stroke-width:0.05mm;fill:none" r="1.75" cx="0" cy="0"/>
    <circle transform="matrix(1,0.000003,0.000003,-1,362.529999,-380.341492)" style="stroke:#0000ff;stroke-width:0.05mm;fill:none" r="1.5" cx="0" cy="0"/>
    <path transform="matrix(-1,-0.000002,-0.000002,1,457.731018,-783.821472)" style="stroke:#0000ff;stroke-width:0.05mm;fill:none" d="M72.799995,392.776154L77.952011,392.776001L77.952003,403.801361C78.026062,405.2146,78.666611,406.538727,79.729942,407.472595C80.793274,408.406433,82.189034,408.870605,83.599998,408.761383C86.334694,408.552063,88.446976,406.272095,88.447998,403.529388L88.448006,392.776001L93.599976,392.776276L93.599976,389.576263L96.79998,389.576263L96.79998,392.776276L99.999977,392.776276L99.999924,401.880371L103.199921,401.880371L103.199921,405.080353L99.999924,405.080353L99.999977,410.976288L96.799973,410.976288L96.799973,407.776276L93.599968,407.776276L93.599968,410.976288L72.799988,410.976166L72.799988,407.776154L69.599983,407.776154L69.599983,410.976166L66.399979,410.976196L66.40007,405.080231L63.200073,405.080231L63.200073,401.880249L66.40007,401.880249L66.399994,392.776184L69.599991,392.776154L69.599991,389.576141L72.799995,389.576141L72.799995,392.776154z"/>
    <circle transform="matrix(-1,-0.000003,-0.000003,1,374.528961,-380.350891)" style="stroke:#f36926;stroke-width:0.05mm;fill:none" r="1.75" cx="0" cy="0"/>
    <circle transform="matrix(-1,-0.000003,-0.000003,1,374.528961,-380.350891)" style="stroke:#f36926;stroke-width:0.05mm;fill:none" r="6" cx="0" cy="0"/>
    <circle transform="matrix(1,0.000003,0.000003,-1,386.529999,-380.341492)" style="stroke:#0000ff;stroke-width:0.05mm;fill:none" r="1.5" cx="0" cy="0"/>
    <rect transform="matrix(1,0,0,-1,363.599976,-300.75)" style="stroke:#f36926;stroke-width:0.05mm;fill:none" x="-9.5" y="-5.25" width="19" height="10.5"/>
    <rect transform="matrix(1,0,0,-1,363.599976,-271.25)" style="stroke:#f36926;stroke-width:0.05mm;fill:none" x="-9.5" y="-5.25" width="19" height="10.5"/>
    <circle transform="matrix(1,-0.000001,0.000001,1,374.008667,-313.995209)" style="stroke:#f36926;stroke-width:0.05mm;fill:none" r="1.75" cx="0" cy="0"/>
    <circle transform="matrix(1,-0.000001,0.000001,1,374.008667,-313.995209)" style="stroke:#f36926;stroke-width:0.05mm;fill:none" r="6" cx="0" cy="0"/>
    <path transform="matrix(-1,-0,0,-1,420.004211,-35.216003)" style="stroke:#0000ff;stroke-width:0.05mm;fill:none" d="M35.599968,270.784027L44.400002,270.783997L44.400002,267.584015L47.599998,267.584015L47.599998,270.783997L56.399963,270.783966L56.399963,267.583984L59.59996,267.583984L59.59996,270.783966L62.696011,270.78418L62.696011,276.680176L59.496006,276.680176L59.496006,279.888184L62.696011,279.888184L62.696011,285.78418L48.240002,285.783997L48.240002,282.799988L48.240002,282.799988L50.487999,278.768005L48.240002,274.743988L43.751999,274.743988L41.512001,278.768005L43.751999,282.799988L43.751995,282.799988L43.751995,285.783997L29.295998,285.783997L29.295998,279.888L32.495995,279.888L32.495995,276.679993L29.295998,276.679993L29.295998,270.783997L32.399971,270.784027L32.399971,267.584045L35.599968,267.584045L35.599968,270.784027z"/>
    <rect transform="matrix(1,0,0,-1,389.100189,-286)" style="stroke:#0000ff;stroke-width:0.05mm;fill:none" x="-1.600002" y="-1.599994" width="3.200003" height="3.199988"/>
    <path transform="matrix(-0.000001,1,1,0.000001,401.504059,-285.999725)" style="stroke:#0000ff;stroke-width:0.05mm;fill:none" d="M2.199999,3.95L4.399999,-0L2.199999,-3.95L-2.2,-3.949999L-4.399999,0L-2.199998,3.95L2.199999,3.95z"/>
    <circle transform="matrix(1,0.000001,0.000001,-1,401.504059,-285.999725)" style="stroke:#f36926;stroke-width:0.05mm;fill:none" r="1.75" cx="0" cy="0"/>
    <path transform="matrix(-1,-0.000001,-0.000001,1,473.89624,-535.999878)" style="stroke:#0000ff;stroke-width:0.05mm;fill:none" d="M73.991997,233.199997L79.896004,233.199997L79.896004,266.799988L73.991997,266.799988L73.991997,270L70.792,270L70.792,266.799988L64.896004,266.799988L64.896004,251.600006L61.695999,251.600006L61.695999,248.399994L64.896004,248.399994L64.896004,233.199997L70.792,233.199997L70.792,230L73.991997,230L73.991997,233.199997z"/>
    <circle transform="matrix(1,0,0,-1,363.599976,-286)" style="stroke:#0000ff;stroke-width:0.05mm;fill:none" r="1.5" cx="0" cy="0"/>
    <circle transform="matrix(1,0,0,-1,373.099976,-295.5)" style="stroke:#0000ff;stroke-width:0.05mm;fill:none" r="1.5" cx="0" cy="0"/>
    <path transform="matrix(1,0,0,-1,329.003998,-35.999985)" style="stroke:#0000ff;stroke-width:0.05mm;fill:none" d="M31.399977,229.999969L31.399977,233.199966L34.599976,233.199966L34.599976,229.999969L43.400002,230L43.400002,233.199997L46.599998,233.199997L46.599998,230L55.399971,230L55.399971,233.199997L58.599968,233.199997L58.599968,230L64.996002,230.000183L64.996002,270.000183L58.599968,270L58.599968,266.799988L55.399971,266.799988L55.399971,270L46.599998,270L46.599998,266.799988L43.400002,266.799988L43.400002,270L34.599976,269.999969L34.599976,266.799957L31.399977,266.799957L31.399977,269.999969L24.996002,270.000183L24.996002,230.000183L31.399977,229.999969z"/>
    <circle transform="matrix(-1,0.000002,-0.000002,-1,373.999603,-258.004822)" style="stroke:#f36926;stroke-width:0.05mm;fill:none" r="1.75" cx="0" cy="0"/>
    <circle transform="matrix(-1,0.000002,-0.000002,-1,373.999603,-258.004822)" style="stroke:#f36926;stroke-width:0.05mm;fill:none" r="6" cx="0" cy="0"/>
    <path transform="translate(328.003998,-536.783997)" style="stroke:#0000ff;stroke-width:0.05mm;fill:none" d="M35.599968,270.784027L44.400002,270.783997L44.400002,267.584015L47.599998,267.584015L47.599998,270.783997L56.399963,270.783966L56.399963,267.583984L59.59996,267.583984L59.59996,270.783966L62.696011,270.78418L62.696011,276.680176L59.496006,276.680176L59.496006,279.888184L62.696011,279.888184L62.696011,285.78418L48.240002,285.783997L48.240002,282.799988L48.240002,282.799988L50.487999,278.768005L48.240002,274.743988L43.751999,274.743988L41.512001,278.768005L43.751999,282.799988L43.751995,282.799988L43.751995,285.783997L29.295998,285.783997L29.295998,279.888L32.495995,279.888L32.495995,276.679993L29.295998,276.679993L29.295998,270.783997L32.399971,270.784027L32.399971,267.584045L35.599968,267.584045L35.599968,270.784027z"/>
    <path transform="matrix(1,0.000001,0.000001,-1,274.10379,-36.000183)" style="stroke:#0000ff;stroke-width:0.05mm;fill:none" d="M73.991997,233.199997L79.896004,233.199997L79.896004,266.799988L73.991997,266.799988L73.991997,270L70.792,270L70.792,266.799988L64.896004,266.799988L64.896004,251.600006L61.695999,251.600006L61.695999,248.399994L64.896004,248.399994L64.896004,233.199997L70.792,233.199997L70.792,230L73.991997,230L73.991997,233.199997z"/>
    <circle transform="matrix(1,0,0,-1,373.099976,-276.5)" style="stroke:#0000ff;stroke-width:0.05mm;fill:none" r="2.5" cx="0" cy="0"/>
    <rect transform="matrix(1,0,0,-1,358.899902,-286)" style="stroke:#0000ff;stroke-width:0.05mm;fill:none" x="-1.600002" y="-1.599994" width="3.200003" height="3.199988"/>
    <rect transform="matrix(1,0,0,-1,392.634003,-342.5)" style="stroke:#f36926;stroke-width:0.05mm;fill:none" x="-100.633575" y="-102.5" width="201.267151" height="205"/>
    <circle transform="matrix(1,0.000001,0.000001,-1,362.529999,-398.541504)" style="stroke:#0000ff;stroke-width:0.05mm;fill:none" r="1.5" cx="0" cy="0"/>
    <circle transform="matrix(1,0.000001,0.000001,-1,386.529999,-398.545502)" style="stroke:#0000ff;stroke-width:0.05mm;fill:none" r="1.5" cx="0" cy="0"/>
    <path transform="matrix(1,0,0,-1,266.377991,43.066502)" style="stroke:#0000ff;stroke-width:0.05mm;fill:none" d="M121.752007,437.312042L121.752007,434.11203L124.952019,434.112L124.952019,440.007996L128.152039,440.007996L128.152039,443.216003L124.952019,443.216003L124.952019,452.312012L121.752007,452.312042L121.752007,455.512024L118.552017,455.512024L118.552017,452.312042L109.751999,452.312012L109.751999,455.511993L106.552002,455.511993L106.552002,452.312012L97.752029,452.311981L97.752029,455.511963L94.552032,455.511963L94.552032,452.311981L91.352036,452.311981L91.352036,443.207977L88.152039,443.207977L88.152039,440.007965L91.352036,440.007965L91.352036,434.111969L94.552032,434.111969L94.552032,437.311981L97.752029,437.311981L97.752029,434.111969L106.295998,434.112L106.295998,441.615997C106.287216,442.612335,107.076111,443.432892,108.071999,443.463989C109.0485,443.509399,109.88929,442.780975,109.984001,441.808014L110,441.615997L110,434.112L118.552017,434.11203L118.552017,437.312042L121.752007,437.312042z"/>
    <circle transform="matrix(-1,-0,0,-1,374.528992,-398.551483)" style="stroke:#f36926;stroke-width:0.05mm;fill:none" r="6" cx="0" cy="0"/>
    <circle transform="matrix(-1,-0,0,-1,374.528992,-398.551483)" style="stroke:#f36926;stroke-width:0.05mm;fill:none" r="1.75" cx="0" cy="0"/>
    <circle transform="matrix(1,0,0,-1,458.984985,-282.536011)" style="stroke:#0000ff;stroke-width:0.05mm;fill:none" r="6.424355" cx="0" cy="0"/>
    <path transform="matrix(1,0,0,-1,435,-297.101288)" style="stroke:#0000ff;stroke-width:0.05mm;fill:none" d="M2.199999,3.95L4.399999,-0L2.199999,-3.95L-2.2,-3.949999L-4.399999,0L-2.199998,3.95L2.199999,3.95z"/>
    <circle transform="matrix(1,0,0,-1,435,-297.101288)" style="stroke:#0000ff;stroke-width:0.05mm;fill:none" r="6.424355" cx="0" cy="0"/>
    <path transform="matrix(1,0,0,-1,458.984985,-296.385101)" style="stroke:#0000ff;stroke-width:0.05mm;fill:none" d="M2.199999,3.95L4.399999,-0L2.199999,-3.95L-2.2,-3.949999L-4.399999,0L-2.199998,3.95L2.199999,3.95z"/>
    <circle transform="matrix(1,0,0,-1,458.984985,-296.385101)" style="stroke:#0000ff;stroke-width:0.05mm;fill:none" r="6.424355" cx="0" cy="0"/>
    <circle transform="matrix(-1,0,0,-1,374.531708,-365.349487)" style="stroke:#f36926;stroke-width:0.05mm;fill:none" r="6" cx="0" cy="0"/>
    <path transform="matrix(1,0.000001,0.000001,-1,328.529602,-48.861496)" style="stroke:#0000ff;stroke-width:0.05mm;fill:none" d="M29.20018,323.984009L29.20018,318.079987L26.000179,318.079987L26.000179,314.880005L29.20018,314.880005L29.20018,305.783997L44.152,305.783997L44.152,316.488007C44.148727,317.48233,44.934326,318.299896,45.928001,318.335999C46.903915,318.379639,47.74369,317.65213,47.84,316.679993L47.855999,316.488007L47.855999,305.783997L62.800171,305.783997L62.800171,314.880005L66.000168,314.880005L66.000168,318.088013L62.800171,318.088013L62.800171,323.984009L29.20018,323.984009z"/>
    <circle transform="matrix(-1,0,0,-1,374.531708,-365.349487)" style="stroke:#f36926;stroke-width:0.05mm;fill:none" r="1.75" cx="0" cy="0"/>
    <circle transform="matrix(1,0.000001,0.000001,-1,386.529999,-365.349487)" style="stroke:#0000ff;stroke-width:0.05mm;fill:none" r="1.5" cx="0" cy="0"/>
    <circle transform="matrix(1,0.000001,0.000001,-1,362.529999,-365.34549)" style="stroke:#0000ff;stroke-width:0.05mm;fill:none" r="1.5" cx="0" cy="0"/>
    <path transform="matrix(1,0,0,-1,-62.074303,-34.154549)" style="stroke:#0000ff;stroke-width:0.05mm;fill:none" d="M378.880005,310.399994L382.079987,310.399994L382.079987,304L387.976013,304L387.976013,400L382.079987,400L382.079987,396.799988L378.880005,396.799988L378.880005,400L369.777771,400.000214L369.777771,385.60022L366.577789,385.60022L366.577789,382.400208L369.777771,382.400208L369.777771,353.60022L366.577789,353.60022L366.577789,350.400208L369.777771,350.400208L369.777771,321.60022L366.577789,321.60022L366.577789,318.400208L369.777771,318.400208L369.777771,304.000214L378.880005,304L378.880005,310.399994z"/>
    <path transform="matrix(1,0,0,-1,248.903687,-338.154541)" style="stroke:#0000ff;stroke-width:0.05mm;fill:none" d="M67.905762,88.197021L67.905762,91.396973L71.105713,91.396973L71.105713,88.197021L67.905762,88.197021z"/>
    <path transform="matrix(1,0,0,-1,248.903687,-338.154541)" style="stroke:#0000ff;stroke-width:0.05mm;fill:none" d="M69.291748,27.6604L69.093262,27.690918C68.163353,27.8822,67.496048,28.700769,67.496094,29.650146L67.506104,68.922119C67.505753,69.452644,67.716469,69.961472,68.091614,70.336609C68.466751,70.711754,68.975571,70.92247,69.506104,70.922119C70.610786,70.922363,71.506241,70.026802,71.506104,68.922119L71.496094,29.650146C71.496376,28.545418,70.600822,27.649891,69.496094,27.650146L69.291748,27.6604z"/>
    <path transform="matrix(1,0,0,-1,326.577423,-393.254395)" style="stroke:#0000ff;stroke-width:0.05mm;fill:none" d="M3.5,-40.900024L-0.67601,-40.900024L-0.67601,40.900024L3.5,40.900024L3.5,-40.900024z"/>
    <path transform="matrix(-1,0,0,-1,411.255707,-338.154541)" style="stroke:#0000ff;stroke-width:0.05mm;fill:none" d="M67.905762,88.197021L67.905762,91.396973L71.105713,91.396973L71.105713,88.197021L67.905762,88.197021z"/>
    <path transform="matrix(1,0,0,-1,29.0777,-34.154549)" style="stroke:#0000ff;stroke-width:0.05mm;fill:none" d="M326.57782,350.400299L326.57782,353.600311L323.377808,353.600311L323.377808,382.400299L326.57782,382.400299L326.57782,385.600311L323.377808,385.600311L323.377808,400.000305L314.272003,400L314.272003,396.799988L311.071991,396.799988L311.071991,400L305.175995,400L305.175995,304L311.071991,304L311.071991,310.399994L314.272003,310.399994L314.272003,304L323.377808,304.000305L323.377808,318.400299L326.57782,318.400299L326.57782,321.600311L323.377808,321.600311L323.377808,350.400299L326.57782,350.400299z"/>
    <path transform="matrix(1,0,0,-1,248.205399,-42.7785)" style="stroke:#0000ff;stroke-width:0.05mm;fill:none" d="M71.800003,388.175995L71.800003,391.376007L75,391.376007L75,392.776001L71.800003,392.776001L71.800003,395.976013L68.599998,395.976013L68.599998,392.776001L65.400002,392.776001L65.400002,391.376007L68.599998,391.376007L68.599998,388.175995L71.800003,388.175995z"/>
    <path transform="matrix(1,0,0,-1,271.549408,-42.7785)" style="stroke:#0000ff;stroke-width:0.05mm;fill:none" d="M71.800003,388.175995L71.800003,391.376007L75,391.376007L75,392.776001L71.800003,392.776001L71.800003,395.976013L68.599998,395.976013L68.599998,392.776001L65.400002,392.776001L65.400002,391.376007L68.599998,391.376007L68.599998,388.175995L71.800003,388.175995z"/>
    <path transform="matrix(1,0,0,-1,330.753418,-393.254395)" style="stroke:#0000ff;stroke-width:0.05mm;fill:none" d="M3.5,-40.900024L-0.67601,-40.900024L-0.67601,40.900024L3.5,40.900024L3.5,-40.900024z"/>
    <path transform="matrix(1,0,0,-1,375.759644,-245.080887)" style="stroke:#f36926;stroke-width:0.05mm;fill:none" d="M-9.483643,-2.921387L-9.262451,-2.880127C-8.643897,-2.73112,-8.17087,-2.231089,-8.056396,-1.605225C-7.892699,-0.957363,-8.044656,-0.270344,-8.466309,0.248047C-9.100351,0.892613,-10.118591,0.95066,-10.821777,0.382324C-11.239569,-0.006205,-11.460743,-0.561738,-11.424316,-1.131104C-11.444764,-1.756356,-11.138727,-2.347164,-10.616211,-2.691162C-10.27518,-2.892818,-9.876338,-2.973893,-9.483643,-2.921387zM28.124268,-2.926514C28.598383,-2.873859,29.046345,-2.682445,29.412109,-2.376221L29.412109,-1.048096L27.895996,-1.050537L27.895996,-1.470459L28.948242,-1.470459L28.948242,-2.136963C28.420191,-2.577168,27.66906,-2.62809,27.086426,-2.263184C26.789276,-2.031269,26.611023,-1.678789,26.600342,-1.302002C26.530737,-0.837421,26.658392,-0.364685,26.952393,0.001709C27.423059,0.451756,28.15007,0.489484,28.664795,0.090576C28.79388,-0.052838,28.885355,-0.225891,28.931152,-0.41333L29.358398,-0.296143C29.259905,0.250413,28.814716,0.669304,28.263184,0.734375C27.739117,0.837978,27.195318,0.725256,26.755615,0.421875C26.321428,0.036566,26.081812,-0.521642,26.101563,-1.101807C26.071951,-1.674628,26.320919,-2.22687,26.769775,-2.583984C27.166046,-2.85589,27.646379,-2.977359,28.124268,-2.926514zM9.147217,-2.916016C9.659718,-2.845874,10.091939,-2.498726,10.270996,-2.013428L10.360352,-1.739014L9.886719,-1.619385L9.82666,-1.831299C9.645323,-2.369865,9.06442,-2.662548,8.523682,-2.487793C8.134729,-2.385137,7.838038,-2.069583,7.759521,-1.675049C7.600439,-1.1361,7.669452,-0.55549,7.950439,-0.068848C8.28651,0.346216,8.8595,0.481468,9.345703,0.260498C9.589799,0.120463,9.7658,-0.113206,9.833008,-0.386475L10.299316,-0.276611C10.184698,0.186622,9.835937,0.556226,9.380127,0.69751C8.701348,0.909358,7.962297,0.676127,7.528076,0.113037C7.049361,-0.670957,7.084682,-1.663398,7.61792,-2.411377C7.862439,-2.708903,8.21841,-2.892933,8.602539,-2.92041C8.783566,-2.941778,8.966559,-2.940302,9.147217,-2.916016zM-25.006836,-2.926514L-24.82959,-2.900146C-24.35232,-2.839758,-23.968292,-2.477168,-23.880615,-2.00415C-23.813049,-1.566302,-24.064465,-1.141207,-24.480713,-0.989502C-24.824821,-0.867994,-25.176775,-0.770035,-25.53418,-0.696289L-25.740234,-0.63208C-25.864946,-0.612481,-25.97695,-0.543191,-26.047844,-0.438772C-26.118738,-0.334353,-26.141813,-0.204686,-26.114014,-0.081543C-26.051811,0.12039,-25.882616,0.270869,-25.674805,0.309082C-25.338913,0.405805,-24.978018,0.357195,-24.679688,0.175049C-24.531534,0.044417,-24.442207,-0.140396,-24.431885,-0.337646L-23.977783,-0.303467C-23.985695,0.172784,-24.315691,0.583519,-24.779053,0.693848C-25.271181,0.85112,-25.808172,0.777432,-26.239746,0.493408C-26.59305,0.21628,-26.686012,-0.279763,-26.457031,-0.666016C-26.248989,-0.933472,-25.947021,-1.111597,-25.612305,-1.164307C-25.461712,-1.203562,-25.310719,-1.241411,-25.159424,-1.277832L-24.978271,-1.325439C-24.768492,-1.358985,-24.574648,-1.458045,-24.424561,-1.608398C-24.292616,-1.787344,-24.294104,-2.031661,-24.428223,-2.208984C-24.562517,-2.368188,-24.753256,-2.468982,-24.960449,-2.490234C-25.350687,-2.574855,-25.758055,-2.470118,-26.059082,-2.207764C-26.183987,-2.060681,-26.258778,-1.877762,-26.272705,-1.685303L-26.719482,-1.724365C-26.717392,-2.191012,-26.437471,-2.611611,-26.007813,-2.793701C-25.68865,-2.913939,-25.346308,-2.959364,-25.006836,-2.926514zM-30.456543,-2.451904L-32.219238,-2.451904L-32.219238,0.704834L-32.692871,0.704834L-32.692871,-2.874268L-30.456543,-2.874268L-30.456543,-2.451904zM-29.389893,-1.790283L-27.893311,-1.790283L-27.47583,-2.874268L-26.936279,-2.874268L-28.401123,0.704834L-28.911377,0.704834L-30.285889,-2.874268L-29.782959,-2.874268L-29.389893,-1.790283zM-20.543457,-2.451904L-22.740723,-2.451904L-22.740723,-1.233643L-20.760742,-1.233643L-20.760742,-0.813721L-22.740723,-0.813721L-22.740723,0.282471L-20.626465,0.282471L-20.626465,0.704834L-23.214355,0.704834L-23.214355,-2.874268L-20.543457,-2.874268L-20.543457,-2.451904zM32.791016,-2.451904L30.59375,-2.451904L30.59375,-1.233643L32.57373,-1.233643L32.57373,-0.813721L30.59375,-0.813721L30.59375,0.282471L32.708008,0.282471L32.708008,0.704834L30.120117,0.704834L30.120117,-2.874268L32.791016,-2.874268L32.791016,-2.451904zM-19.408691,-1.284912L-18.859375,-1.284912C-18.572109,-1.255354,-18.292566,-1.391808,-18.13916,-1.636475C-17.847118,-2.03537,-17.574966,-2.448488,-17.32373,-2.874268L-16.728027,-2.874268L-17.350586,-1.900146C-17.474848,-1.674223,-17.650902,-1.480588,-17.864014,-1.335449L-18.029297,-1.24585L-17.788574,-1.198486C-17.286116,-1.108254,-16.948351,-0.631078,-17.030273,-0.127197C-17.071526,0.314141,-17.431547,0.658751,-17.874268,0.680664C-18.01395,0.698116,-18.154648,0.70619,-18.29541,0.704834L-19.882324,0.704834L-19.882324,-2.874268L-19.408691,-2.874268L-19.408691,-1.284912zM-14.4021,-1.187256L-12.541748,-1.187256L-12.541748,-2.874268L-12.068115,-2.874268L-12.068115,0.704834L-12.541748,0.704834L-12.541748,-0.764893L-14.4021,-0.764893L-14.4021,0.704834L-14.875732,0.704834L-14.875732,-2.874268L-14.4021,-2.874268L-14.4021,-1.187256zM-5.174316,-2.451904L-6.937012,-2.451904L-6.937012,0.704834L-7.410645,0.704834L-7.410645,-2.874268L-5.174316,-2.874268L-5.174316,-2.451904zM-3.013184,-2.858887C-2.690319,-2.843368,-2.38337,-2.713858,-2.146973,-2.493408C-1.80105,-2.100529,-1.623329,-1.587874,-1.651855,-1.065186C-1.622241,-0.582042,-1.776304,-0.105197,-2.083008,0.269287C-2.367399,0.568279,-2.769506,0.726565,-3.181396,0.70166C-3.657763,0.710411,-4.134447,0.711472,-4.61084,0.704834L-4.61084,-2.874268L-3.319336,-2.874268L-3.013184,-2.858887zM23.389893,-1.790283L24.886475,-1.790283L25.303955,-2.874268L25.843506,-2.874268L24.378662,0.704834L23.868408,0.704834L22.493896,-2.874268L22.996826,-2.874268L23.389893,-1.790283zM1.680176,-2.451904L-0.51709,-2.451904L-0.51709,-1.233643L1.462891,-1.233643L1.462891,-0.813721L-0.51709,-0.813721L-0.51709,0.282471L1.597168,0.282471L1.597168,0.704834L-0.990723,0.704834L-0.990723,-2.874268L1.680176,-2.874268L1.680176,-2.451904zM22.052002,0.704834L21.578369,0.704834L21.578369,-2.874268L22.052002,-2.874268L22.052002,0.704834zM2.814697,-1.284912L3.364014,-1.284912C3.651279,-1.255354,3.930822,-1.391809,4.084229,-1.636475C4.376272,-2.035372,4.64842,-2.448484,4.899658,-2.874268L5.495361,-2.874268L4.872803,-1.900146C4.748477,-1.674342,4.572538,-1.480743,4.359619,-1.335449L4.194092,-1.24585L4.434814,-1.198486C4.937292,-1.108277,5.275066,-0.631088,5.193115,-0.127197C5.152043,0.314224,4.791916,0.658933,4.349121,0.680664C4.209437,0.698115,4.068743,0.70619,3.927979,0.704834L2.341064,0.704834L2.341064,-2.874268L2.814697,-2.874268L2.814697,-1.284912zM18.368652,-1.284912L18.917969,-1.284912C19.205235,-1.255355,19.484777,-1.391809,19.638184,-1.636475C19.930227,-2.035373,20.202375,-2.448483,20.453613,-2.874268L21.049316,-2.874268L20.426758,-1.900146C20.302536,-1.674194,20.126476,-1.480553,19.91333,-1.335449L19.748047,-1.24585L19.98877,-1.198486C20.49123,-1.108254,20.828995,-0.631078,20.74707,-0.127197C20.705841,0.314155,20.345808,0.658774,19.903076,0.680664C19.763395,0.698115,19.622696,0.70619,19.481934,0.704834L17.89502,0.704834L17.89502,-2.874268L18.368652,-2.874268L18.368652,-1.284912zM14.758545,-1.284912L15.307861,-1.284912C15.595126,-1.255353,15.87467,-1.391808,16.028076,-1.636475C16.320122,-2.035378,16.59227,-2.448488,16.843506,-2.874268L17.439209,-2.874268L16.81665,-1.900146C16.692389,-1.674223,16.516335,-1.480589,16.303223,-1.335449L16.137939,-1.24585L16.378662,-1.198486C16.881123,-1.108254,17.218885,-0.631078,17.136963,-0.127197C17.095711,0.314141,16.735689,0.658751,16.292969,0.680664C16.153286,0.698115,16.012589,0.70619,15.871826,0.704834L14.284912,0.704834L14.284912,-2.874268L14.758545,-2.874268L14.758545,-1.284912zM11.446045,-1.790283L12.942627,-1.790283L13.360107,-2.874268L13.899658,-2.874268L12.434814,0.704834L11.924561,0.704834L10.550049,-2.874268L11.052979,-2.874268L11.446045,-1.790283zM-9.966797,-2.506592C-10.479705,-2.395888,-10.86258,-1.966744,-10.914307,-1.44458C-10.989205,-1.016636,-10.925365,-0.575657,-10.732178,-0.186523C-10.403442,0.312579,-9.762777,0.501168,-9.216064,0.259766C-8.843413,0.082685,-8.584496,-0.269475,-8.526611,-0.677979C-8.435657,-1.106419,-8.491116,-1.553099,-8.684082,-1.946289C-8.94255,-2.393904,-9.46277,-2.621142,-9.966797,-2.506592zM23.526611,-1.404541C23.715153,-0.948859,23.883133,-0.484918,24.030029,-0.01416L24.112549,0.328857L24.159424,0.173584C24.337624,-0.358006,24.531208,-0.884213,24.73999,-1.404541L23.526611,-1.404541zM-29.253174,-1.404541L-28.860107,-0.354736C-28.778002,-0.132279,-28.713512,0.096291,-28.667236,0.328857L-28.620117,0.173584C-28.442001,-0.357965,-28.24847,-0.88425,-28.039795,-1.404541L-29.253174,-1.404541zM11.582764,-1.404541C11.771085,-0.94875,11.939141,-0.484823,12.086426,-0.01416L12.168701,0.328857L12.21582,0.173584C12.393936,-0.357965,12.587463,-0.884238,12.796143,-1.404541L11.582764,-1.404541zM2.814697,-0.874756L2.814697,0.309326L3.94751,0.309326C4.15496,0.326772,4.361768,0.268675,4.529785,0.145752C4.73736,-0.044987,4.775145,-0.358135,4.618896,-0.592773C4.466542,-0.783826,4.230094,-0.887677,3.986328,-0.870605C3.595906,-0.882542,3.205195,-0.883926,2.814697,-0.874756zM14.758545,-0.874756L14.758545,0.309326L15.891357,0.309326C16.098806,0.326766,16.305613,0.268669,16.473633,0.145752C16.681105,-0.045027,16.718882,-0.35812,16.562744,-0.592773C16.410368,-0.783793,16.173931,-0.887639,15.930176,-0.870605C15.539754,-0.882542,15.149043,-0.883926,14.758545,-0.874756zM18.368652,-0.874756L18.368652,0.309326L19.501465,0.309326C19.708914,0.326765,19.91572,0.268669,20.08374,0.145752C20.291292,-0.044996,20.329075,-0.358132,20.172852,-0.592773C20.020496,-0.783826,19.784048,-0.887677,19.540283,-0.870605C19.149878,-0.882542,18.759136,-0.883926,18.368652,-0.874756zM-19.408691,-0.874756L-19.408691,0.309326L-18.275879,0.309326C-18.06843,0.326766,-17.861624,0.268669,-17.693604,0.145752C-17.486078,-0.045007,-17.448298,-0.358128,-17.604492,-0.592773C-17.756868,-0.783794,-17.993305,-0.887639,-18.237061,-0.870605C-18.627481,-0.882542,-19.018177,-0.883926,-19.408691,-0.874756zM-4.137207,-2.451904L-4.137207,0.282471C-3.76512,0.303223,-3.391958,0.297103,-3.020752,0.26416C-2.660864,0.227115,-2.356485,-0.018072,-2.243652,-0.361816C-2.062983,-0.901413,-2.099944,-1.490165,-2.34668,-2.00293C-2.531442,-2.295881,-2.859692,-2.465884,-3.205566,-2.447754C-3.516026,-2.456829,-3.826688,-2.458214,-4.137207,-2.451904z"/>
    <path transform="matrix(1,0,0,-1,363.419189,-425.506592)" style="stroke:#f36926;stroke-width:0.05mm;fill:none" d="M-1.567383,-2.921387C-1.111255,-2.873995,-0.696575,-2.635654,-0.426025,-2.265381C0.079957,-1.488319,0.03008,-0.475539,-0.549805,0.248047C-1.141369,0.8442,-2.068821,0.943007,-2.772705,0.484863C-3.221289,0.158425,-3.490744,-0.359605,-3.500488,-0.914307C-3.573955,-1.529266,-3.34529,-2.141585,-2.886719,-2.557861C-2.516349,-2.856631,-2.038509,-2.988293,-1.567383,-2.921387zM-5.037842,-2.859375C-4.873114,-2.845719,-4.711683,-2.805485,-4.559814,-2.740234C-4.121727,-2.518718,-3.909603,-2.012596,-4.058838,-1.544922C-4.156151,-1.257794,-4.394146,-1.040638,-4.688965,-0.969971L-4.571289,-0.902832C-4.219471,-0.67963,-4.089098,-0.229139,-4.267334,0.147461C-4.401681,0.442727,-4.682673,0.644617,-5.005371,0.677734C-5.127656,0.696656,-5.251263,0.705718,-5.375,0.704834L-6.717773,0.704834L-6.717773,-2.874268L-5.353027,-2.874268L-5.037842,-2.859375zM2.122803,-2.858887C2.73528,-2.821006,3.250027,-2.385565,3.388916,-1.787842C3.580691,-1.146748,3.500764,-0.45564,3.167725,0.124756C2.890457,0.51399,2.431502,0.732245,1.95459,0.70166C1.478223,0.710411,1.00154,0.711472,0.525146,0.704834L0.525146,-2.874268L1.81665,-2.874268L2.122803,-2.858887zM5.617188,-1.358154L7.04541,0.704834L6.493652,0.704834C6.110718,0.157498,5.749134,-0.404422,5.409668,-0.979736L5.234619,-0.677002C4.946493,-0.209949,4.648386,0.250683,4.340332,0.704834L3.76416,0.704834L5.143555,-1.358154L5.143555,-2.874268L5.617188,-2.874268L5.617188,-1.358154zM-2.050293,-2.506592C-2.563233,-2.395932,-2.946124,-1.96677,-2.997803,-1.44458C-3.072963,-1.016645,-3.009109,-0.575575,-2.815674,-0.186523C-2.487029,0.312548,-1.846446,0.501143,-1.299805,0.259766C-0.926978,0.082899,-0.66798,-0.26937,-0.610352,-0.677979C-0.519382,-1.106401,-0.574751,-1.553047,-0.767578,-1.946289C-1.02605,-2.393898,-1.546268,-2.621135,-2.050293,-2.506592zM-6.244141,-0.799072L-6.244141,0.282471C-5.855308,0.306432,-5.465109,0.297038,-5.077881,0.254395C-4.820137,0.222043,-4.633443,-0.007957,-4.654785,-0.266846C-4.65258,-0.410165,-4.708881,-0.548742,-4.812416,-0.647826C-4.915951,-0.74691,-5.056866,-0.797071,-5.199951,-0.788574C-5.547741,-0.806167,-5.896062,-0.809669,-6.244141,-0.799072zM0.998779,-2.451904L0.998779,0.282471C1.370867,0.303223,1.744029,0.297103,2.115234,0.26416C2.47511,0.227093,2.779482,-0.018088,2.892334,-0.361816C3.072979,-0.901415,3.036018,-1.490161,2.789307,-2.00293C2.604534,-2.295867,2.276289,-2.465868,1.93042,-2.447754C1.619976,-2.456829,1.309299,-2.458214,0.998779,-2.451904zM-6.244141,-1.221436L-5.416504,-1.221436C-5.178799,-1.196672,-4.93917,-1.24615,-4.730713,-1.363037C-4.497994,-1.549717,-4.433009,-1.876703,-4.57666,-2.138184C-4.701291,-2.337718,-4.922592,-2.455529,-5.157715,-2.44751C-5.519704,-2.461425,-5.882047,-2.46289,-6.244141,-2.451904L-6.244141,-1.221436z"/>
    <circle transform="matrix(1,0,0,-1,435,-269.403992)" style="stroke:#0000ff;stroke-width:0.05mm;fill:none" r="6.424355" cx="0" cy="0"/>
    <circle transform="matrix(-1,-0,-0,1,435,-269.403992)" style="stroke:#0000ff;stroke-width:0.05mm;fill:none" r="1.5" cx="0" cy="0"/>
    <path transform="matrix(1,0,0,-1,435.075989,-247.082962)" style="stroke:#f36926;stroke-width:0.05mm;fill:none" d="M-7.680908,-2.921387L-7.459717,-2.880127C-6.841164,-2.73112,-6.368136,-2.231089,-6.253662,-1.605225C-6.089964,-0.957363,-6.241921,-0.270344,-6.663574,0.248047C-7.297617,0.892613,-8.315857,0.95066,-9.019043,0.382324C-9.436834,-0.006205,-9.658009,-0.561738,-9.621582,-1.131104C-9.64203,-1.756356,-9.335993,-2.347164,-8.813477,-2.691162C-8.472446,-2.892818,-8.073605,-2.973894,-7.680908,-2.921387zM7.7854,-2.921387C8.500262,-2.848157,9.081861,-2.311824,9.212646,-1.605225C9.376449,-0.957412,9.224576,-0.270363,8.802979,0.248047C8.168827,0.892573,7.150548,0.950615,6.447266,0.382324C6.078281,0.050972,5.862864,-0.418492,5.852295,-0.914307C5.778749,-1.529283,6.007422,-2.141626,6.466064,-2.557861C6.836398,-2.856702,7.31427,-2.988373,7.7854,-2.921387zM-11.056641,0.282471L-9.872559,0.282471L-9.872559,0.704834L-12.709473,0.704834L-12.709473,0.282471L-11.530273,0.282471L-11.530273,-2.874268L-11.056641,-2.874268L-11.056641,0.282471zM-5.114746,-1.419189C-4.747993,-1.427382,-4.381071,-1.425753,-4.014404,-1.414307C-3.69583,-1.428042,-3.384125,-1.316186,-3.146973,-1.103027C-2.777952,-0.694226,-2.75452,-0.08027,-3.091309,0.355469C-3.307703,0.58241,-3.610662,0.7064,-3.924072,0.696289C-4.478691,0.71471,-5.033586,0.71756,-5.588379,0.704834L-5.588379,-2.874268L-5.114746,-2.874268L-5.114746,-1.419189zM-0.501465,-1.634033L0.084473,-1.062744L1.358887,-2.874268L1.983887,-2.874268L0.416504,-0.745361L1.917969,0.704834L1.275879,0.704834L-0.501465,-1.070068L-0.501465,0.704834L-0.975098,0.704834L-0.975098,-2.874268L-0.501465,-2.874268L-0.501465,-1.634033zM2.827881,-0.061768L4.707764,-2.874268L5.193604,-2.874268L5.193604,0.704834L4.739502,0.704834L4.739502,-2.105225L2.859619,0.704834L2.373779,0.704834L2.373779,-2.874268L2.827881,-2.874268L2.827881,-0.061768zM11.53833,-2.859375C11.807119,-2.850733,12.064736,-2.749361,12.267334,-2.57251C12.607492,-2.229681,12.657393,-1.69448,12.386475,-1.294678C12.259911,-1.134904,12.084578,-1.020874,11.887207,-0.969971L12.005127,-0.902832C12.356911,-0.679612,12.487196,-0.229059,12.308838,0.147461C12.174492,0.442727,11.893499,0.644617,11.570801,0.677734C11.448516,0.696656,11.324908,0.705718,11.201172,0.704834L9.858398,0.704834L9.858398,-2.874268L11.223145,-2.874268L11.53833,-2.859375zM-8.164063,-2.506592C-8.676971,-2.395888,-9.059847,-1.966744,-9.111572,-1.44458C-9.186471,-1.016636,-9.122631,-0.575657,-8.929443,-0.186523C-8.600708,0.312579,-7.960043,0.501168,-7.41333,0.259766C-7.040679,0.082685,-6.781762,-0.269475,-6.723877,-0.677979C-6.632923,-1.106419,-6.688381,-1.553099,-6.881348,-1.946289C-7.139815,-2.393904,-7.660035,-2.621142,-8.164063,-2.506592zM7.30249,-2.506592L7.073242,-2.437012C6.675544,-2.255953,6.402583,-1.878927,6.354736,-1.44458C6.279746,-1.016616,6.34368,-0.575577,6.537109,-0.186523C6.865705,0.312618,7.506341,0.501229,8.052979,0.259766C8.425756,0.082848,8.68474,-0.269402,8.742432,-0.677979C8.833467,-1.106419,8.778007,-1.553117,8.584961,-1.946289C8.326624,-2.393909,7.806449,-2.62117,7.30249,-2.506592zM-5.114746,-0.996826L-5.114746,0.282471C-4.719149,0.297083,-4.323104,0.294476,-3.927734,0.274658C-3.632293,0.279546,-3.381993,0.057363,-3.351807,-0.236572C-3.317027,-0.390804,-3.342924,-0.552983,-3.426283,-0.6873C-3.509643,-0.821617,-3.643475,-0.916809,-3.797119,-0.954102C-3.925588,-0.984743,-4.0574,-0.999097,-4.189453,-0.996826L-5.114746,-0.996826zM10.332031,-0.799072L10.332031,0.282471C10.72086,0.306436,11.111065,0.297042,11.498291,0.254395C11.756055,0.22207,11.94276,-0.007944,11.921387,-0.266846C11.923596,-0.410123,11.86733,-0.548663,11.763847,-0.647741C11.660366,-0.746818,11.519511,-0.797009,11.376465,-0.788574C11.028604,-0.806155,10.680182,-0.809657,10.332031,-0.799072zM10.332031,-1.221436L11.159668,-1.221436C11.397373,-1.196672,11.637002,-1.24615,11.845459,-1.363037C12.078204,-1.549705,12.143193,-1.876705,11.999512,-2.138184C11.874881,-2.337718,11.65358,-2.455529,11.418457,-2.44751C11.056479,-2.461426,10.694114,-2.462891,10.332031,-2.451904L10.332031,-1.221436z"/>
    <path transform="matrix(1,0,0,-1,441.948364,-435.082001)" style="stroke:#f36926;stroke-width:0.05mm;fill:none" d="M-15.688721,-2.921387L-15.467529,-2.880127C-14.848975,-2.731121,-14.375948,-2.231089,-14.261475,-1.605225C-14.097776,-0.957363,-14.249734,-0.270344,-14.671387,0.248047C-15.305429,0.892614,-16.323669,0.95066,-17.026855,0.382324C-17.444647,-0.006205,-17.665821,-0.561738,-17.629395,-1.131104C-17.649841,-1.756356,-17.343805,-2.347164,-16.821289,-2.691162C-16.480259,-2.892818,-16.081417,-2.973893,-15.688721,-2.921387zM3.580322,-2.926514C4.054407,-2.873739,4.502335,-2.682339,4.868164,-2.376221L4.868164,-1.048096L3.352051,-1.050537L3.352051,-1.470459L4.404297,-1.470459L4.404297,-2.136963C3.876137,-2.577128,3.124966,-2.628047,2.542236,-2.263184C2.245263,-2.031119,2.067057,-1.678736,2.056152,-1.302002C1.986775,-0.837396,2.114504,-0.36472,2.408447,0.001709C2.879008,0.451785,3.605978,0.489517,4.120605,0.090576C4.249897,-0.052732,4.34147,-0.225816,4.387207,-0.41333L4.814453,-0.296143C4.715749,0.250391,4.270534,0.669214,3.718994,0.734375C3.195006,0.838019,2.651266,0.72529,2.21167,0.421875C1.777248,0.036737,1.537581,-0.521591,1.557617,-1.101807C1.528009,-1.67458,1.776866,-2.226777,2.225586,-2.583984C2.621937,-2.855913,3.102357,-2.977382,3.580322,-2.926514zM-21.208252,0.172607L-20.173096,-2.874268L-19.74585,-2.874268L-18.705811,0.121338L-18.705811,-2.874268L-18.249268,-2.874268L-18.249268,0.704834L-18.886475,0.704834C-19.250237,-0.31163,-19.599251,-1.332642,-19.933838,-2.359131L-20.050049,-1.995117L-20.951904,0.704834L-21.664795,0.704834L-21.664795,-2.874268L-21.208252,-2.874268L-21.208252,0.172607zM-11.926514,-2.922852L-11.705078,-2.885498C-11.205208,-2.782196,-10.83595,-2.356383,-10.804443,-1.846924C-10.783194,-1.686514,-10.772998,-1.524842,-10.773926,-1.363037L-10.773926,0.704834L-11.247559,0.704834L-11.247559,-1.360596C-11.230433,-1.621681,-11.273209,-1.883437,-11.372559,-2.125488C-11.49252,-2.346079,-11.720921,-2.486189,-11.971924,-2.493164C-12.26878,-2.556251,-12.578687,-2.494429,-12.828613,-2.322266C-12.989416,-2.180765,-13.08521,-1.979651,-13.09375,-1.765625C-13.109167,-1.631182,-13.116343,-1.495918,-13.115234,-1.360596L-13.115234,0.704834L-13.588867,0.704834L-13.588867,-1.363037C-13.617593,-1.726896,-13.542544,-2.091805,-13.372559,-2.414795C-13.152572,-2.728159,-12.795899,-2.917567,-12.413086,-2.924316C-12.251223,-2.939445,-12.088283,-2.938954,-11.926514,-2.922852zM-9.536865,-0.061768L-7.656982,-2.874268L-7.171143,-2.874268L-7.171143,0.704834L-7.625244,0.704834L-7.625244,-2.105225L-9.505127,0.704834L-9.990967,0.704834L-9.990967,-2.874268L-9.536865,-2.874268L-9.536865,-0.061768zM-4.991699,0.282471L-3.807617,0.282471L-3.807617,0.704834L-6.644531,0.704834L-6.644531,0.282471L-5.465332,0.282471L-5.465332,-2.874268L-4.991699,-2.874268L-4.991699,0.282471zM-2.767822,0.704834L-3.241455,0.704834L-3.241455,-2.874268L-2.767822,-2.874268L-2.767822,0.704834zM-1.483887,-0.061768L0.395996,-2.874268L0.881836,-2.874268L0.881836,0.704834L0.427734,0.704834L0.427734,-2.105225L-1.452148,0.704834L-1.937988,0.704834L-1.937988,-2.874268L-1.483887,-2.874268L-1.483887,-0.061768zM7.428955,-1.419189C7.795725,-1.427382,8.162631,-1.425753,8.529297,-1.414307C8.847872,-1.428042,9.159575,-1.316186,9.396729,-1.103027C9.76562,-0.694204,9.789149,-0.080395,9.452637,0.355469C9.2361,0.582348,8.933096,0.70632,8.619629,0.696289C8.065011,0.714712,7.510116,0.717562,6.955322,0.704834L6.955322,-2.874268L7.428955,-2.874268L7.428955,-1.419189zM12.506348,-2.451904L10.743652,-2.451904L10.743652,0.704834L10.27002,0.704834L10.27002,-2.874268L12.506348,-2.874268L12.506348,-2.451904zM13.572998,-1.790283L15.06958,-1.790283L15.487061,-2.874268L16.026611,-2.874268L14.561768,0.704834L14.051514,0.704834L12.677002,-2.874268L13.179932,-2.874268L13.572998,-1.790283zM17.417725,0.282471L18.601807,0.282471L18.601807,0.704834L15.764893,0.704834L15.764893,0.282471L16.944092,0.282471L16.944092,-2.874268L17.417725,-2.874268L17.417725,0.282471zM21.768066,-2.451904L19.570801,-2.451904L19.570801,-1.233643L21.550781,-1.233643L21.550781,-0.813721L19.570801,-0.813721L19.570801,0.282471L21.685059,0.282471L21.685059,0.704834L19.097168,0.704834L19.097168,-2.874268L21.768066,-2.874268L21.768066,-2.451904zM-16.171875,-2.506592C-16.684784,-2.395888,-17.067659,-1.966744,-17.119385,-1.44458C-17.194284,-1.016636,-17.130444,-0.575656,-16.937256,-0.186523C-16.608521,0.312579,-15.967855,0.501168,-15.421143,0.259766C-15.048491,0.082685,-14.789575,-0.269475,-14.731689,-0.677979C-14.640734,-1.106418,-14.696193,-1.553099,-14.88916,-1.946289C-15.147627,-2.393905,-15.667848,-2.621142,-16.171875,-2.506592zM13.709717,-1.404541C13.898043,-0.948738,14.066093,-0.484823,14.213379,-0.01416L14.295654,0.328857L14.342773,0.173584C14.520891,-0.357965,14.714418,-0.884241,14.923096,-1.404541L13.709717,-1.404541zM7.428955,-0.996826L7.428955,0.282471C7.824553,0.297084,8.220597,0.294477,8.615967,0.274658C8.911419,0.27957,9.161731,0.057378,9.191895,-0.236572C9.226688,-0.390805,9.200791,-0.552987,9.11743,-0.687307C9.034068,-0.821628,8.900233,-0.916822,8.746582,-0.954102C8.618121,-0.984781,8.486302,-0.999136,8.354248,-0.996826L7.428955,-0.996826z"/>
    <path transform="matrix(1,0,0,-1,458.984985,-310.233795)" style="stroke:#0000ff;stroke-width:0.05mm;fill:none" d="M2.199999,3.95L4.399999,-0L2.199999,-3.95L-2.2,-3.949999L-4.399999,0L-2.199998,3.95L2.199999,3.95z"/>
    <circle transform="matrix(1,0,0,-1,458.984985,-310.233795)" style="stroke:#0000ff;stroke-width:0.05mm;fill:none" r="6.424355" cx="0" cy="0"/>
    <path transform="matrix(1,0,0,-1,435,-310.950012)" style="stroke:#0000ff;stroke-width:0.05mm;fill:none" d="M2.199999,3.95L4.399999,-0L2.199999,-3.95L-2.2,-3.949999L-4.399999,0L-2.199998,3.95L2.199999,3.95z"/>
    <circle transform="matrix(1,0,0,-1,435,-310.950012)" style="stroke:#0000ff;stroke-width:0.05mm;fill:none" r="6.424355" cx="0" cy="0"/>
    <path transform="matrix(-1,-0,-0,1,435,-283.252991)" style="stroke:#0000ff;stroke-width:0.05mm;fill:none" d="M1.5,2.749992L3,-0L1.5,-2.749992L-1.5,-2.749992L-3,0L-1.499999,2.749993L1.5,2.749992z"/>
    <circle transform="matrix(1,0,0,-1,435,-283.252991)" style="stroke:#0000ff;stroke-width:0.05mm;fill:none" r="6.424355" cx="0" cy="0"/>
    <path transform="matrix(1,0,0,-1,461.022247,-259.083252)" style="stroke:#f36926;stroke-width:0.05mm;fill:none" d="M8.571289,-2.921387C9.286164,-2.848074,9.867789,-2.311809,9.998779,-1.605225C10.16242,-0.957366,10.010468,-0.270365,9.588867,0.248047C8.954721,0.89259,7.936433,0.950633,7.233154,0.382324C6.815493,-0.006283,6.594423,-0.56178,6.630859,-1.131104C6.610412,-1.756357,6.916449,-2.347164,7.438965,-2.691162C7.779916,-2.89279,8.178673,-2.973866,8.571289,-2.921387zM-11.675049,-2.926514L-11.498047,-2.900146C-11.020702,-2.839933,-10.636577,-2.477253,-10.549072,-2.00415C-10.481464,-1.566289,-10.732891,-1.141176,-11.14917,-0.989502C-11.493196,-0.867974,-11.845061,-0.770017,-12.202393,-0.696289L-12.408691,-0.63208C-12.533378,-0.612468,-12.645326,-0.543139,-12.716175,-0.438717C-12.787025,-0.334294,-12.810078,-0.204651,-12.782227,-0.081543C-12.720237,0.120436,-12.551073,0.27097,-12.343262,0.309082C-12.007375,0.405841,-11.646461,0.357229,-11.348145,0.175049C-11.19995,0.044444,-11.110618,-0.140381,-11.100342,-0.337646L-10.64624,-0.303467C-10.654165,0.172698,-10.984023,0.583386,-11.447266,0.693848C-11.939479,0.851093,-12.476528,0.77741,-12.908203,0.493408C-13.261271,0.216129,-13.354195,-0.279708,-13.125488,-0.666016C-12.917381,-0.933514,-12.615317,-1.111646,-12.280518,-1.164307C-12.129977,-1.203629,-11.978917,-1.241497,-11.827637,-1.277832L-11.646484,-1.325439C-11.436756,-1.358921,-11.242968,-1.457994,-11.093018,-1.608398C-10.961046,-1.787338,-10.962536,-2.031667,-11.09668,-2.208984C-11.230957,-2.368212,-11.421702,-2.46901,-11.628906,-2.490234C-12.019072,-2.574857,-12.42636,-2.470115,-12.727295,-2.207764C-12.85237,-2.060764,-12.927261,-1.877812,-12.941162,-1.685303L-13.387939,-1.724365C-13.38582,-2.191001,-13.105907,-2.611591,-12.67627,-2.793701C-12.357022,-2.913937,-12.014602,-2.959359,-11.675049,-2.926514zM-9.338135,0.704834L-9.811768,0.704834L-9.811768,-2.874268L-9.338135,-2.874268L-9.338135,0.704834zM-6.905762,-2.858887C-6.733833,-2.843189,-6.565132,-2.802392,-6.405029,-2.737793C-5.971458,-2.519353,-5.670698,-2.104511,-5.5979,-1.624512C-5.456898,-1.029358,-5.551102,-0.402645,-5.86084,0.124756C-6.138108,0.51399,-6.597063,0.732245,-7.073975,0.70166C-7.550342,0.710411,-8.027025,0.711472,-8.503418,0.704834L-8.503418,-2.874268L-7.211914,-2.874268L-6.905762,-2.858887zM-2.212402,-2.451904L-4.409668,-2.451904L-4.409668,-1.233643L-2.429688,-1.233643L-2.429688,-0.813721L-4.409668,-0.813721L-4.409668,0.282471L-2.29541,0.282471L-2.29541,0.704834L-4.883301,0.704834L-4.883301,-2.874268L-2.212402,-2.874268L-2.212402,-2.451904zM0.284424,-1.634033L0.870361,-1.062744L2.144775,-2.874268L2.769775,-2.874268L1.202393,-0.745361L2.703857,0.704834L2.061768,0.704834L0.284424,-1.070068L0.284424,0.704834L-0.189209,0.704834L-0.189209,-2.874268L0.284424,-2.874268L0.284424,-1.634033zM3.61377,-0.061768L5.493652,-2.874268L5.979492,-2.874268L5.979492,0.704834L5.525391,0.704834L5.525391,-2.105225L3.645508,0.704834L3.159668,0.704834L3.159668,-2.874268L3.61377,-2.874268L3.61377,-0.061768zM12.324219,-2.859375C12.593007,-2.850733,12.850624,-2.74936,13.053223,-2.57251C13.393423,-2.229696,13.443325,-1.694474,13.172363,-1.294678C13.045798,-1.134905,12.870466,-1.020874,12.673096,-0.969971L12.791016,-0.902832C13.142799,-0.679612,13.273085,-0.229059,13.094727,0.147461C12.96038,0.442727,12.679388,0.644617,12.356689,0.677734C12.234407,0.696681,12.110799,0.705744,11.987061,0.704834L10.644287,0.704834L10.644287,-2.874268L12.009033,-2.874268L12.324219,-2.859375zM8.088379,-2.506592L7.859131,-2.437012C7.461407,-2.256039,7.188486,-1.878941,7.140869,-1.44458C7.065709,-1.016645,7.129562,-0.575575,7.322998,-0.186523C7.651643,0.312549,8.292226,0.501144,8.838867,0.259766C9.211695,0.082899,9.470692,-0.26937,9.52832,-0.677979C9.61929,-1.106401,9.563921,-1.553047,9.371094,-1.946289C9.112622,-2.393898,8.592405,-2.621134,8.088379,-2.506592zM-8.029785,-2.451904L-8.029785,0.282471C-7.657694,0.303223,-7.284542,0.297103,-6.91333,0.26416C-6.553442,0.227115,-6.249063,-0.018072,-6.13623,-0.361816C-5.955561,-0.901413,-5.992522,-1.490165,-6.239258,-2.00293C-6.42402,-2.295881,-6.75227,-2.465884,-7.098145,-2.447754C-7.408588,-2.456831,-7.719264,-2.458216,-8.029785,-2.451904zM11.11792,-0.799072L11.11792,0.282471C11.506747,0.306436,11.896954,0.297042,12.28418,0.254395C12.541944,0.22207,12.728648,-0.007944,12.707275,-0.266846C12.709487,-0.410123,12.65322,-0.548665,12.549738,-0.647743C12.446256,-0.746821,12.3054,-0.797013,12.162354,-0.788574C11.814491,-0.806158,11.466069,-0.80966,11.11792,-0.799072zM11.11792,-1.221436L11.945557,-1.221436C12.183262,-1.196671,12.422891,-1.24615,12.631348,-1.363037C12.864093,-1.549705,12.929081,-1.876705,12.7854,-2.138184C12.66077,-2.337719,12.439468,-2.455529,12.204346,-2.44751C11.842356,-2.461426,11.480012,-2.462891,11.11792,-2.451904L11.11792,-1.221436z"/>
    <circle transform="matrix(1,0,0,-1,435,-255.554993)" style="stroke:#0000ff;stroke-width:0.05mm;fill:none" r="6.424355" cx="0" cy="0"/>
    <circle transform="matrix(-1,-0,-0,1,435,-255.554993)" style="stroke:#0000ff;stroke-width:0.05mm;fill:none" r="1.5" cx="0" cy="0"/>
    <circle transform="matrix(1,0,0,-1,458.984985,-268.687988)" style="stroke:#0000ff;stroke-width:0.05mm;fill:none" r="6.424355" cx="0" cy="0"/>
    <rect transform="matrix(1,0,0,-1,442.000031,-375.997986)" style="stroke:#f36926;stroke-width:0.05mm;fill:none" x="-25" y="-53.499996" width="50" height="106.999992"/>
    <path transform="matrix(1,0,0,-0.196262,669,-306.698975)" style="stroke:#f36926;stroke-width:0.05mm;fill:none" d="M-227,187.5L-227,80.5"/>
    <path transform="matrix(1,0,0,-1,414.499908,-394.997009)" style="stroke:#f36926;stroke-width:0.05mm;fill:none" d="M2.25166,3.899989L4.50332,-0L2.251659,-3.89999L-2.251661,-3.899989L-4.50332,0L-2.251659,3.89999L2.25166,3.899989z"/>
    <circle transform="matrix(1,0,0,-1,414.499908,-394.997009)" style="stroke:#f36926;stroke-width:0.05mm;fill:none" r="2.5" cx="0" cy="0"/>
    <path transform="matrix(1,0,0,-0.478261,669,-339.824982)" style="stroke:#f36926;stroke-width:0.05mm;fill:none" d="M-227,187.5L-227,176"/>
    <rect transform="matrix(1,0,0,-1,475.000031,-400.997986)" style="stroke:#0c96d9;stroke-width:0.05mm;fill:none" x="-8" y="-2.5" width="16" height="5"/>
    <path transform="matrix(1,0,0,-1,669,-241.998001)" style="stroke:#0c96d9;stroke-width:0.05mm;fill:none" d="M-235.5,161.5L-218.5,161.5"/>
    <rect transform="matrix(1,0,0,-1,442.000031,-376.748993)" style="stroke:#f36926;stroke-width:0.05mm;fill:none" x="-41" y="-26.75" width="82" height="53.5"/>
    <path transform="matrix(1,0,0,-1,235,-73.498505)" style="stroke:#0c96d9;stroke-width:0.05mm;fill:none" d="M207,356L207,250.5"/>
    <path transform="matrix(1,0,0,-1,469.499908,-394.997009)" style="stroke:#f36926;stroke-width:0.05mm;fill:none" d="M2.25166,3.899989L4.50332,-0L2.251659,-3.89999L-2.251661,-3.899989L-4.50332,0L-2.251659,3.89999L2.25166,3.899989z"/>
    <circle transform="matrix(1,0,0,-1,469.499908,-394.997009)" style="stroke:#f36926;stroke-width:0.05mm;fill:none" r="2.5" cx="0" cy="0"/>
    <path transform="matrix(1,0,0,-1,748.348022,-241.041)" style="stroke:#0c96d9;stroke-width:0.05mm;fill:none" d="M-306.347687,162.457947L-306.347687,108.957947"/>
    <rect transform="matrix(1,0,0,-1,409.000031,-400.997986)" style="stroke:#0c96d9;stroke-width:0.05mm;fill:none" x="-8" y="-2.5" width="16" height="5"/>
    <rect transform="matrix(1,0,0,-1,423.596008,-338.501984)" style="stroke:#0000ff;stroke-width:0.05mm;fill:none" x="-1.600002" y="-1.599994" width="3.200003" height="3.199988"/>
    <rect transform="matrix(1,0,0,-1,423.596008,-370.501984)" style="stroke:#0000ff;stroke-width:0.05mm;fill:none" x="-1.600002" y="-1.599994" width="3.200003" height="3.199988"/>
    <path transform="matrix(1,0,0,-1,669,-241.998001)" style="stroke:#0000ff;stroke-width:0.05mm;fill:none" d="M-203.199997,80.528L-203.056,80.568001C-202.427368,80.761147,-201.998611,81.342369,-202,82L-202,107.496002C-201.997314,107.770317,-201.778259,107.993797,-201.503998,108L-186.503998,108C-186.370728,107.99482,-186.241943,108.046242,-186.147324,108.140221C-186.052704,108.234192,-186.000397,108.362633,-186,108.496002L-186,161C-186.001831,161.27774,-186.226257,161.503342,-186.503998,161.503998L-201.503998,161.503998C-201.635956,161.504166,-201.763,161.555603,-201.856674,161.648529C-201.950348,161.74144,-202.002823,161.868073,-202,162L-202,186C-201.999466,186.398758,-202.157852,186.781311,-202.440109,187.062988C-202.722366,187.344666,-203.105225,187.502274,-203.503998,187.503998L-224.503998,187.503998L-224.503998,184.447998L-224.304001,184.231995C-223.126877,182.812607,-223.252884,180.723694,-224.591995,179.455994C-225.9673,178.148087,-228.136063,178.179901,-229.472,179.528C-230.830017,180.878632,-230.844055,183.071548,-229.503998,184.440002L-229.503998,187.503998L-250.503998,187.503998C-251.330673,187.497223,-251.997955,186.826706,-252,186L-252,162C-251.999496,161.866608,-252.05191,161.738129,-252.146759,161.644348C-252.241623,161.550568,-252.370682,161.499634,-252.503998,161.503998L-267.503998,161.503998C-267.777924,161.495102,-267.998169,161.274078,-268,161L-268,108.496002C-268.001801,108.364067,-267.949677,108.237297,-267.856262,108.144127C-267.762848,108.050949,-267.635925,107.999168,-267.503998,108L-252.503998,108C-252.226257,107.998863,-252.001343,107.773743,-252,107.496002L-252,82C-251.996155,81.232445,-251.418793,80.589569,-250.656006,80.503998L-203.343994,80.503998L-203.199997,80.528z"/>
    <rect transform="matrix(1,0,0,-1,460.396027,-402.501984)" style="stroke:#0000ff;stroke-width:0.05mm;fill:none" x="-1.600002" y="-1.599994" width="3.200003" height="3.199988"/>
    <rect transform="matrix(1,0,0,-1,453.996033,-412.302002)" style="stroke:#0000ff;stroke-width:0.05mm;fill:none" x="-1.600002" y="-1.599994" width="3.200003" height="3.199988"/>
    <path transform="matrix(1,0,0,-1,669,-241.998001)" style="stroke:#0000ff;stroke-width:0.05mm;fill:none" d="M-254.143997,149.520004L-253.792007,149.567993C-253.109818,149.709778,-252.485474,150.0522,-252,150.552002L-252,155.447998C-253.271561,156.74617,-255.323563,156.857086,-256.727997,155.703995C-256.820648,155.620789,-256.911346,155.535446,-257,155.447998L-257,150.552002C-256.256531,149.788162,-255.203949,149.407318,-254.143997,149.520004z"/>
    <rect transform="matrix(1,0,0,-1,441.996033,-412.302002)" style="stroke:#0000ff;stroke-width:0.05mm;fill:none" x="-1.600002" y="-1.599994" width="3.200003" height="3.199988"/>
    <path transform="matrix(1,0,0,-1,669,-241.998001)" style="stroke:#0000ff;stroke-width:0.05mm;fill:none" d="M-199.143997,149.520004L-198.792007,149.567993C-198.109833,149.709747,-197.485718,150.052444,-197,150.552002L-197,155.447998C-198.271606,156.746185,-200.323715,156.857361,-201.727997,155.703995C-201.82132,155.621521,-201.912079,155.536209,-202,155.447998L-202,150.552002C-201.256683,149.78804,-200.203964,149.407532,-199.143997,149.520004z"/>
    <rect transform="matrix(1,0,0,-1,460.396027,-370.501984)" style="stroke:#0000ff;stroke-width:0.05mm;fill:none" x="-1.600002" y="-1.599994" width="3.200003" height="3.199988"/>
    <rect transform="matrix(1,0,0,-1,453.996033,-418.502991)" style="stroke:#0000ff;stroke-width:0.05mm;fill:none" x="-1.600011" y="-3.199994" width="3.200022" height="6.399988"/>
    <rect transform="matrix(1,0,0,-1,429.996033,-412.302002)" style="stroke:#0000ff;stroke-width:0.05mm;fill:none" x="-1.600002" y="-1.599994" width="3.200003" height="3.199988"/>
    <rect transform="matrix(1,0,0,-1,460.396027,-338.501984)" style="stroke:#0000ff;stroke-width:0.05mm;fill:none" x="-1.600002" y="-1.599994" width="3.200003" height="3.199988"/>
    <rect transform="matrix(1,0,0,-1,441.996033,-327.302002)" style="stroke:#0000ff;stroke-width:0.05mm;fill:none" x="-1.600002" y="-1.599994" width="3.200003" height="3.199988"/>
    <rect transform="matrix(1,0,0,-1,423.596008,-402.501984)" style="stroke:#0000ff;stroke-width:0.05mm;fill:none" x="-1.600002" y="-1.599994" width="3.200003" height="3.199988"/>
    <rect transform="matrix(1,0,0,-1,429.996033,-327.302002)" style="stroke:#0000ff;stroke-width:0.05mm;fill:none" x="-1.600002" y="-1.599994" width="3.200003" height="3.199988"/>
    <rect transform="matrix(1,0,0,-1,453.996033,-327.302002)" style="stroke:#0000ff;stroke-width:0.05mm;fill:none" x="-1.600002" y="-1.599994" width="3.200003" height="3.199988"/>
    <rect transform="matrix(1,0,0,-1,429.996033,-418.502991)" style="stroke:#0000ff;stroke-width:0.05mm;fill:none" x="-1.600002" y="-3.199994" width="3.200003" height="6.399988"/>
    <circle transform="matrix(1,0,0,-1,442.000031,-343.497986)" style="stroke:#0000ff;stroke-width:0.05mm;fill:none" r="2.5" cx="0" cy="0"/>
    <path transform="matrix(1,0,0,-1,0,0)" style="stroke:none;fill:#00e000;fill-rule:evenodd" d="M385.029999,344.399414L383.529999,347.149414L385.029999,349.899414L388.029999,349.899414L389.529999,347.149414L388.029999,344.399414L385.029999,344.399414z"/>
    <path transform="matrix(1,0,0,-1,0,0)" style="stroke:none;fill:#00e000;fill-rule:evenodd" d="M361.029999,344.395416L359.529999,347.145416L361.029999,349.895416L364.029999,349.895416L365.529999,347.145416L364.029999,344.395416L361.029999,344.395416z"/>
    <path transform="matrix(1,0,0,-1,0,0)" style="stroke:none;fill:#00e000;fill-rule:evenodd" d="M364.029999,401.291504L365.529999,398.541504L364.029999,395.791504L361.029999,395.791504L359.529999,398.541504L361.029999,401.291504L364.029999,401.291504z"/>
    <path transform="matrix(1,0,0,-1,0,0)" style="stroke:none;fill:#00e000;fill-rule:evenodd" d="M388.029999,401.295502L389.529999,398.545502L388.029999,395.795502L385.029999,395.795502L383.529999,398.545502L385.029999,401.295502L388.029999,401.295502z"/>
    <path transform="matrix(1,0,0,-1,0,0)" style="stroke:none;fill:#00e000;fill-rule:evenodd" d="M444.251678,347.39798L446.503357,343.497986L444.251678,339.597992L439.748383,339.597992L437.496704,343.497986L439.748383,347.39798L444.251678,347.39798z"/>
</svg>
